<mxfile host="app.diagrams.net" modified="2024-05-24T07:16:44.600Z" agent="Mozilla/5.0 (Windows NT 10.0; Win64; x64) AppleWebKit/537.36 (KHTML, like Gecko) Chrome/124.0.0.0 Safari/537.36" etag="5MREjeSiZ0q_1eZjebD7" version="24.4.6" type="device">
  <diagram name="Page-1" id="6133507b-19e7-1e82-6fc7-422aa6c4b21f">
    <mxGraphModel dx="7400" dy="2364" grid="1" gridSize="10" guides="1" tooltips="1" connect="1" arrows="1" fold="1" page="1" pageScale="1" pageWidth="1100" pageHeight="850" background="none" math="0" shadow="0">
      <root>
        <mxCell id="0" />
        <mxCell id="1" parent="0" />
        <mxCell id="VjnVj0Spa0lAr0Tu__Oc-33" value="" style="whiteSpace=wrap;html=1;aspect=fixed;" parent="1" vertex="1">
          <mxGeometry x="-3591" y="-730" width="1870" height="1870" as="geometry" />
        </mxCell>
        <mxCell id="uNZQMIJPDMaygq_h1qCS-120" value="&lt;font style=&quot;font-size: 22px;&quot;&gt;Leckie&#39;s Choice Class Diagram&lt;/font&gt;" style="rounded=0;whiteSpace=wrap;html=1;" parent="1" vertex="1">
          <mxGeometry x="-2855" y="-610" width="480" height="60" as="geometry" />
        </mxCell>
        <mxCell id="VjnVj0Spa0lAr0Tu__Oc-32" style="edgeStyle=orthogonalEdgeStyle;rounded=0;orthogonalLoop=1;jettySize=auto;html=1;exitX=0.25;exitY=0;exitDx=0;exitDy=0;entryX=0.5;entryY=1;entryDx=0;entryDy=0;dashed=1;endArrow=block;endFill=0;endSize=16;" parent="1" source="235556782a83e6d0-1" target="uNZQMIJPDMaygq_h1qCS-104" edge="1">
          <mxGeometry relative="1" as="geometry" />
        </mxCell>
        <mxCell id="235556782a83e6d0-1" value="Customer" style="swimlane;html=1;fontStyle=1;align=center;verticalAlign=top;childLayout=stackLayout;horizontal=1;startSize=26;horizontalStack=0;resizeParent=1;resizeLast=0;collapsible=1;marginBottom=0;swimlaneFillColor=#ffffff;rounded=0;shadow=0;comic=0;labelBackgroundColor=none;strokeWidth=1;fillColor=none;fontFamily=Verdana;fontSize=12" parent="1" vertex="1">
          <mxGeometry x="-3220" y="-85" width="340" height="326" as="geometry">
            <mxRectangle x="67.5" y="463.71" width="100" height="30" as="alternateBounds" />
          </mxGeometry>
        </mxCell>
        <mxCell id="235556782a83e6d0-2" value="username: string" style="text;html=1;strokeColor=none;fillColor=none;align=left;verticalAlign=top;spacingLeft=4;spacingRight=4;whiteSpace=wrap;overflow=hidden;rotatable=0;points=[[0,0.5],[1,0.5]];portConstraint=eastwest;" parent="235556782a83e6d0-1" vertex="1">
          <mxGeometry y="26" width="340" height="26" as="geometry" />
        </mxCell>
        <mxCell id="235556782a83e6d0-3" value="password: string" style="text;html=1;strokeColor=none;fillColor=none;align=left;verticalAlign=top;spacingLeft=4;spacingRight=4;whiteSpace=wrap;overflow=hidden;rotatable=0;points=[[0,0.5],[1,0.5]];portConstraint=eastwest;" parent="235556782a83e6d0-1" vertex="1">
          <mxGeometry y="52" width="340" height="26" as="geometry" />
        </mxCell>
        <mxCell id="235556782a83e6d0-5" value="paymentMethod: string" style="text;html=1;strokeColor=none;fillColor=none;align=left;verticalAlign=top;spacingLeft=4;spacingRight=4;whiteSpace=wrap;overflow=hidden;rotatable=0;points=[[0,0.5],[1,0.5]];portConstraint=eastwest;" parent="235556782a83e6d0-1" vertex="1">
          <mxGeometry y="78" width="340" height="26" as="geometry" />
        </mxCell>
        <mxCell id="uNZQMIJPDMaygq_h1qCS-98" value="shippingAddress: string" style="text;html=1;strokeColor=none;fillColor=none;align=left;verticalAlign=top;spacingLeft=4;spacingRight=4;whiteSpace=wrap;overflow=hidden;rotatable=0;points=[[0,0.5],[1,0.5]];portConstraint=eastwest;" parent="235556782a83e6d0-1" vertex="1">
          <mxGeometry y="104" width="340" height="26" as="geometry" />
        </mxCell>
        <mxCell id="235556782a83e6d0-6" value="" style="line;html=1;strokeWidth=1;fillColor=none;align=left;verticalAlign=middle;spacingTop=-1;spacingLeft=3;spacingRight=3;rotatable=0;labelPosition=right;points=[];portConstraint=eastwest;" parent="235556782a83e6d0-1" vertex="1">
          <mxGeometry y="130" width="340" height="8" as="geometry" />
        </mxCell>
        <mxCell id="235556782a83e6d0-7" value="void createProfile(&lt;div&gt;&lt;span style=&quot;white-space: pre;&quot;&gt;&#x9;&lt;/span&gt;username: string,&lt;/div&gt;&lt;div&gt;&lt;span style=&quot;white-space: pre;&quot;&gt;&#x9;&lt;/span&gt;password: string,&lt;/div&gt;&lt;div&gt;&lt;span style=&quot;white-space: pre;&quot;&gt;&#x9;&lt;/span&gt;paymentMethod: string,&lt;/div&gt;&lt;div&gt;&lt;span style=&quot;white-space: pre;&quot;&gt;&#x9;&lt;/span&gt;shippingAddress: string&lt;/div&gt;&lt;div&gt;)&lt;/div&gt;" style="text;html=1;strokeColor=none;fillColor=none;align=left;verticalAlign=top;spacingLeft=4;spacingRight=4;whiteSpace=wrap;overflow=hidden;rotatable=0;points=[[0,0.5],[1,0.5]];portConstraint=eastwest;" parent="235556782a83e6d0-1" vertex="1">
          <mxGeometry y="138" width="340" height="102" as="geometry" />
        </mxCell>
        <mxCell id="uNZQMIJPDMaygq_h1qCS-102" value="boolean login(&lt;div&gt;&lt;span style=&quot;white-space: pre;&quot;&gt;&#x9;&lt;/span&gt;username: string,&amp;nbsp;&lt;div&gt;&lt;span style=&quot;white-space: pre;&quot;&gt;&#x9;&lt;/span&gt;password: string&lt;div&gt;)&amp;nbsp;&lt;div&gt;&lt;span style=&quot;color: rgba(0, 0, 0, 0); font-family: monospace; font-size: 0px; text-wrap: nowrap;&quot;&gt;;%3CmxGraphModel%3E%3Croot%3E%3CmxCell%20id%3D%220%22%2F%3E%3CmxCell%20id%3D%221%22%20parent%3D%220%22%2F%3E%3CmxCell%20id%3D%222%22%20value%3D%22%2B%20createProfile(username%3A%20string%2C%20password%3A%20string%2C%20paymentMethod%3A%20string%2C%20ShippingAddress%3A%20string)%3A%20void%22%20style%3D%22text%3Bhtml%3D1%3BstrokeColor%3Dnone%3BfillColor%3Dnone%3Balign%3Dleft%3BverticalAlign%3Dtop%3BspacingLeft%3D4%3BspacingRight%3D4%3BwhiteSpace%3Dwrap%3Boverflow%3Dhidden%3Brotatable%3D0%3Bpoints%3D%5B%5B0%2C0.5%5D%2C%5B1%2C0.5%5D%5D%3BportConstraint%3Deastwest%3B%22%20vertex%3D%221%22%20parent%3D%221%22%3E%3CmxGeometry%20x%3D%22-165%22%20y%3D%22581.71%22%20width%3D%22585%22%20height%3D%2226%22%20as%3D%22geometry%22%2F%3E%3C%2FmxCell%3E%3C%2Froot%3E%3C%2FmxGraphModel%3E&lt;/span&gt;&lt;span style=&quot;color: rgba(0, 0, 0, 0); font-family: monospace; font-size: 0px; text-wrap: nowrap;&quot;&gt;%3CmxGraphModel%3E%3Croot%3E%3CmxCell%20id%3D%220%22%2F%3E%3CmxCell%20id%3D%221%22%20parent%3D%220%22%2F%3E%3CmxCell%20id%3D%222%22%20value%3D%22%2B%20createProfile(username%3A%20string%2C%20password%3A%20string%2C%20paymentMethod%3A%20string%2C%20ShippingAddress%3A%20string)%3A%20void%22%20style%3D%22text%3Bhtml%3D1%3BstrokeColor%3Dnone%3BfillColor%3Dnone%3Balign%3Dleft%3BverticalAlign%3Dtop%3BspacingLeft%3D4%3BspacingRight%3D4%3BwhiteSpace%3Dwrap%3Boverflow%3Dhidden%3Brotatable%3D0%3Bpoints%3D%5B%5B0%2C0.5%5D%2C%5B1%2C0.5%5D%5D%3BportConstraint%3Deastwest%3B%22%20vertex%3D%221%22%20parent%3D%221%22%3E%3CmxGeometry%20x%3D%22-165%22%20y%3D%22581.71%22%20width%3D%22585%22%20height%3D%2226%22%20as%3D%22geometry%22%2F%3E%3C%2FmxCell%3E%3C%2Froot%3E%3C%2FmxGraphModel%3Eu&lt;/span&gt;&lt;/div&gt;&lt;/div&gt;&lt;/div&gt;&lt;/div&gt;" style="text;html=1;strokeColor=none;fillColor=none;align=left;verticalAlign=top;spacingLeft=4;spacingRight=4;whiteSpace=wrap;overflow=hidden;rotatable=0;points=[[0,0.5],[1,0.5]];portConstraint=eastwest;" parent="235556782a83e6d0-1" vertex="1">
          <mxGeometry y="240" width="340" height="60" as="geometry" />
        </mxCell>
        <mxCell id="uNZQMIJPDMaygq_h1qCS-101" value="[Order] viewOrderHistory()" style="text;html=1;strokeColor=none;fillColor=none;align=left;verticalAlign=top;spacingLeft=4;spacingRight=4;whiteSpace=wrap;overflow=hidden;rotatable=0;points=[[0,0.5],[1,0.5]];portConstraint=eastwest;" parent="235556782a83e6d0-1" vertex="1">
          <mxGeometry y="300" width="340" height="20" as="geometry" />
        </mxCell>
        <mxCell id="uNZQMIJPDMaygq_h1qCS-104" value="&lt;p style=&quot;margin:0px;margin-top:4px;text-align:center;&quot;&gt;&lt;i&gt;&amp;lt;&amp;lt;Interface&amp;gt;&amp;gt;&lt;/i&gt;&lt;br&gt;&lt;b&gt;ICustomer&lt;/b&gt;&lt;/p&gt;&lt;hr size=&quot;1&quot;&gt;&lt;p style=&quot;margin:0px;margin-left:4px;&quot;&gt;&lt;span style=&quot;text-wrap: wrap; background-color: initial;&quot;&gt;void createProfile(&lt;/span&gt;&lt;/p&gt;&lt;blockquote style=&quot;margin: 0 0 0 40px; border: none; padding: 0px;&quot;&gt;&lt;p style=&quot;margin:0px;margin-left:4px;&quot;&gt;&lt;span style=&quot;text-wrap: wrap; background-color: initial;&quot;&gt;username: string,&amp;nbsp;&lt;/span&gt;&lt;/p&gt;&lt;p style=&quot;margin:0px;margin-left:4px;&quot;&gt;&lt;span style=&quot;text-wrap: wrap; background-color: initial;&quot;&gt;password: string,&lt;/span&gt;&lt;/p&gt;&lt;p style=&quot;margin:0px;margin-left:4px;&quot;&gt;&lt;span style=&quot;text-wrap: wrap; background-color: initial;&quot;&gt;paymentMethod: string,&amp;nbsp;&lt;/span&gt;&lt;/p&gt;&lt;p style=&quot;margin:0px;margin-left:4px;&quot;&gt;&lt;span style=&quot;text-wrap: wrap; background-color: initial;&quot;&gt;shippingAddress: string&lt;/span&gt;&lt;/p&gt;&lt;p style=&quot;margin:0px;margin-left:4px;&quot;&gt;&lt;span style=&quot;background-color: initial; text-wrap: wrap;&quot;&gt;)&lt;/span&gt;&lt;/p&gt;&lt;/blockquote&gt;&lt;p style=&quot;margin:0px;margin-left:4px;&quot;&gt;&lt;span style=&quot;text-wrap: wrap; background-color: initial;&quot;&gt;&lt;br&gt;&lt;/span&gt;&lt;/p&gt;&lt;p style=&quot;margin:0px;margin-left:4px;&quot;&gt;&lt;span style=&quot;text-wrap: wrap;&quot;&gt;boolean login(&lt;/span&gt;&lt;/p&gt;&lt;blockquote style=&quot;margin: 0 0 0 40px; border: none; padding: 0px;&quot;&gt;&lt;p style=&quot;margin:0px;margin-left:4px;&quot;&gt;&lt;span style=&quot;text-wrap: wrap;&quot;&gt;username: string,&lt;/span&gt;&lt;/p&gt;&lt;p style=&quot;margin:0px;margin-left:4px;&quot;&gt;&lt;span style=&quot;text-wrap: wrap;&quot;&gt;password: string&lt;/span&gt;&lt;/p&gt;&lt;p style=&quot;margin:0px;margin-left:4px;&quot;&gt;&lt;span style=&quot;text-wrap: wrap;&quot;&gt;)&lt;/span&gt;&lt;/p&gt;&lt;/blockquote&gt;&lt;p style=&quot;margin:0px;margin-left:4px;&quot;&gt;&lt;span style=&quot;text-wrap: wrap;&quot;&gt;&lt;br&gt;&lt;/span&gt;&lt;/p&gt;&lt;div style=&quot;text-wrap: wrap;&quot;&gt;&lt;span style=&quot;color: rgba(0, 0, 0, 0); font-family: monospace; font-size: 0px; text-wrap: nowrap;&quot;&gt;;%3CmxGraphModel%3E%3Croot%3E%3CmxCell%20id%3D%220%22%2F%3E%3CmxCell%20id%3D%221%22%20parent%3D%220%22%2F%3E%3CmxCell%20id%3D%222%22%20value%3D%22%2B%20createProfile(username%3A%20string%2C%20password%3A%20string%2C%20paymentMethod%3A%20string%2C%20ShippingAddress%3A%20string)%3A%20void%22%20style%3D%22text%3Bhtml%3D1%3BstrokeColor%3Dnone%3BfillColor%3Dnone%3Balign%3Dleft%3BverticalAlign%3Dtop%3BspacingLeft%3D4%3BspacingRight%3D4%3BwhiteSpace%3Dwrap%3Boverflow%3Dhidden%3Brotatable%3D0%3Bpoints%3D%5B%5B0%2C0.5%5D%2C%5B1%2C0.5%5D%5D%3BportConstraint%3Deastwest%3B%22%20vertex%3D%221%22%20parent%3D%221%22%3E%3CmxGeometry%20x%3D%22-165%22%20y%3D%22581.71%22%20width%3D%22585%22%20height%3D%2226%22%20as%3D%22geometry%22%2F%3E%3C%2FmxCell%3E%3C%2Froot%3E%3C%2FmxGraphModel%3E&lt;/span&gt;&lt;span style=&quot;color: rgba(0, 0, 0, 0); font-family: monospace; font-size: 0px; text-wrap: nowrap;&quot;&gt;%3CmxGraphModel%3E%3Croot%3E%3CmxCell%20id%3D%220%22%2F%3E%3CmxCell%20id%3D%221%22%20parent%3D%220%22%2F%3E%3CmxCell%20id%3D%222%22%20value%3D%22%2B%20createProfile(username%3A%20string%2C%20password%3A%20string%2C%20paymentMethod%3A%20string%2C%20ShippingAddress%3A%20string)%3A%20void%22%20style%3D%22text%3Bhtml%3D1%3BstrokeColor%3Dnone%3BfillColor%3Dnone%3Balign%3Dleft%3BverticalAlign%3Dtop%3BspacingLeft%3D4%3BspacingRight%3D4%3BwhiteSpace%3Dwrap%3Boverflow%3Dhidden%3Brotatable%3D0%3Bpoints%3D%5B%5B0%2C0.5%5D%2C%5B1%2C0.5%5D%5D%3BportConstraint%3Deastwest%3B%22%20vertex%3D%221%22%20parent%3D%221%22%3E%3CmxGeometry%20x%3D%22-165%22%20y%3D%22581.71%22%20width%3D%22585%22%20height%3D%2226%22%20as%3D%22geometry%22%2F%3E%3C%2FmxCell%3E%3C%2Froot%3E%3C%2FmxGraphModel%{[&lt;/span&gt;[Order]&amp;nbsp;&lt;span style=&quot;background-color: initial;&quot;&gt;viewOrderHistory()&lt;/span&gt;&lt;/div&gt;" style="verticalAlign=top;align=left;overflow=fill;fontSize=12;fontFamily=Helvetica;html=1;rounded=0;shadow=0;comic=0;labelBackgroundColor=none;strokeWidth=1" parent="1" vertex="1">
          <mxGeometry x="-3231.88" y="-490" width="193.75" height="250" as="geometry" />
        </mxCell>
        <mxCell id="VjnVj0Spa0lAr0Tu__Oc-15" style="edgeStyle=orthogonalEdgeStyle;rounded=0;orthogonalLoop=1;jettySize=auto;html=1;exitX=0.5;exitY=1;exitDx=0;exitDy=0;entryX=0.5;entryY=0;entryDx=0;entryDy=0;endArrow=block;endFill=1;startArrow=block;startFill=1;" parent="1" source="78961159f06e98e8-43" target="78961159f06e98e8-82" edge="1">
          <mxGeometry relative="1" as="geometry" />
        </mxCell>
        <mxCell id="VjnVj0Spa0lAr0Tu__Oc-21" style="edgeStyle=orthogonalEdgeStyle;rounded=0;orthogonalLoop=1;jettySize=auto;html=1;exitX=0.75;exitY=1;exitDx=0;exitDy=0;entryX=0.5;entryY=0;entryDx=0;entryDy=0;endArrow=block;endFill=1;startArrow=block;startFill=1;" parent="1" source="78961159f06e98e8-43" target="uNZQMIJPDMaygq_h1qCS-23" edge="1">
          <mxGeometry relative="1" as="geometry" />
        </mxCell>
        <mxCell id="78961159f06e98e8-43" value="OnlineOrderingSystem" style="swimlane;html=1;fontStyle=1;align=center;verticalAlign=top;childLayout=stackLayout;horizontal=1;startSize=26;horizontalStack=0;resizeParent=1;resizeLast=0;collapsible=1;marginBottom=0;swimlaneFillColor=#ffffff;rounded=0;shadow=0;comic=0;labelBackgroundColor=none;strokeWidth=1;fillColor=none;fontFamily=Verdana;fontSize=12" parent="1" vertex="1">
          <mxGeometry x="-2535" y="-490" width="230" height="580" as="geometry" />
        </mxCell>
        <mxCell id="78961159f06e98e8-44" value="customers: [Customers]" style="text;html=1;strokeColor=none;fillColor=none;align=left;verticalAlign=top;spacingLeft=4;spacingRight=4;whiteSpace=wrap;overflow=hidden;rotatable=0;points=[[0,0.5],[1,0.5]];portConstraint=eastwest;" parent="78961159f06e98e8-43" vertex="1">
          <mxGeometry y="26" width="230" height="26" as="geometry" />
        </mxCell>
        <mxCell id="78961159f06e98e8-45" value="products: [Products]" style="text;html=1;strokeColor=none;fillColor=none;align=left;verticalAlign=top;spacingLeft=4;spacingRight=4;whiteSpace=wrap;overflow=hidden;rotatable=0;points=[[0,0.5],[1,0.5]];portConstraint=eastwest;" parent="78961159f06e98e8-43" vertex="1">
          <mxGeometry y="52" width="230" height="26" as="geometry" />
        </mxCell>
        <mxCell id="b94bc138ca980ef-2" value="orders: [Order]" style="text;html=1;strokeColor=none;fillColor=none;align=left;verticalAlign=top;spacingLeft=4;spacingRight=4;whiteSpace=wrap;overflow=hidden;rotatable=0;points=[[0,0.5],[1,0.5]];portConstraint=eastwest;" parent="78961159f06e98e8-43" vertex="1">
          <mxGeometry y="78" width="230" height="26" as="geometry" />
        </mxCell>
        <mxCell id="b94bc138ca980ef-3" value="shoppingCarts: [ShoppingCart]" style="text;html=1;strokeColor=none;fillColor=none;align=left;verticalAlign=top;spacingLeft=4;spacingRight=4;whiteSpace=wrap;overflow=hidden;rotatable=0;points=[[0,0.5],[1,0.5]];portConstraint=eastwest;" parent="78961159f06e98e8-43" vertex="1">
          <mxGeometry y="104" width="230" height="26" as="geometry" />
        </mxCell>
        <mxCell id="78961159f06e98e8-52" value="inventory: Inventory" style="text;html=1;strokeColor=none;fillColor=none;align=left;verticalAlign=top;spacingLeft=4;spacingRight=4;whiteSpace=wrap;overflow=hidden;rotatable=0;points=[[0,0.5],[1,0.5]];portConstraint=eastwest;" parent="78961159f06e98e8-43" vertex="1">
          <mxGeometry y="130" width="230" height="26" as="geometry" />
        </mxCell>
        <mxCell id="uNZQMIJPDMaygq_h1qCS-1" value="marketingManager: MarketingManager" style="text;html=1;strokeColor=none;fillColor=none;align=left;verticalAlign=top;spacingLeft=4;spacingRight=4;whiteSpace=wrap;overflow=hidden;rotatable=0;points=[[0,0.5],[1,0.5]];portConstraint=eastwest;" parent="78961159f06e98e8-43" vertex="1">
          <mxGeometry y="156" width="230" height="26" as="geometry" />
        </mxCell>
        <mxCell id="78961159f06e98e8-51" value="" style="line;html=1;strokeWidth=1;fillColor=none;align=left;verticalAlign=middle;spacingTop=-1;spacingLeft=3;spacingRight=3;rotatable=0;labelPosition=right;points=[];portConstraint=eastwest;" parent="78961159f06e98e8-43" vertex="1">
          <mxGeometry y="182" width="230" height="8" as="geometry" />
        </mxCell>
        <mxCell id="uNZQMIJPDMaygq_h1qCS-2" value="void registerCustomer(&lt;div&gt;&lt;span style=&quot;white-space: pre;&quot;&gt;&#x9;&lt;/span&gt;customer: Customer&lt;/div&gt;&lt;div&gt;)&lt;/div&gt;" style="text;html=1;strokeColor=none;fillColor=none;align=left;verticalAlign=top;spacingLeft=4;spacingRight=4;whiteSpace=wrap;overflow=hidden;rotatable=0;points=[[0,0.5],[1,0.5]];portConstraint=eastwest;" parent="78961159f06e98e8-43" vertex="1">
          <mxGeometry y="190" width="230" height="50" as="geometry" />
        </mxCell>
        <mxCell id="uNZQMIJPDMaygq_h1qCS-6" value="[Product] searchProducts(&lt;div&gt;&lt;span style=&quot;white-space: pre;&quot;&gt;&#x9;&lt;/span&gt;criteria: string&lt;/div&gt;&lt;div&gt;)&lt;/div&gt;" style="text;html=1;strokeColor=none;fillColor=none;align=left;verticalAlign=top;spacingLeft=4;spacingRight=4;whiteSpace=wrap;overflow=hidden;rotatable=0;points=[[0,0.5],[1,0.5]];portConstraint=eastwest;" parent="78961159f06e98e8-43" vertex="1">
          <mxGeometry y="240" width="230" height="50" as="geometry" />
        </mxCell>
        <mxCell id="uNZQMIJPDMaygq_h1qCS-5" value="[Product] filterProducts(&lt;div&gt;&lt;span style=&quot;white-space: pre;&quot;&gt;&#x9;&lt;/span&gt;criteria: string&lt;/div&gt;&lt;div&gt;)&lt;/div&gt;" style="text;html=1;strokeColor=none;fillColor=none;align=left;verticalAlign=top;spacingLeft=4;spacingRight=4;whiteSpace=wrap;overflow=hidden;rotatable=0;points=[[0,0.5],[1,0.5]];portConstraint=eastwest;" parent="78961159f06e98e8-43" vertex="1">
          <mxGeometry y="290" width="230" height="50" as="geometry" />
        </mxCell>
        <mxCell id="uNZQMIJPDMaygq_h1qCS-4" value="[Order] placeOrder(&lt;div&gt;&lt;span style=&quot;white-space: pre;&quot;&gt;&#x9;&lt;/span&gt;customer: Customer,&lt;/div&gt;&lt;div&gt;&lt;span style=&quot;white-space: pre;&quot;&gt;&#x9;&lt;/span&gt;shoppingCart: ShoppingCart&lt;/div&gt;&lt;div&gt;)&lt;/div&gt;&lt;div&gt;&lt;br&gt;&lt;/div&gt;" style="text;html=1;strokeColor=none;fillColor=none;align=left;verticalAlign=top;spacingLeft=4;spacingRight=4;whiteSpace=wrap;overflow=hidden;rotatable=0;points=[[0,0.5],[1,0.5]];portConstraint=eastwest;" parent="78961159f06e98e8-43" vertex="1">
          <mxGeometry y="340" width="230" height="60" as="geometry" />
        </mxCell>
        <mxCell id="uNZQMIJPDMaygq_h1qCS-3" value="void updateOrderStatus(&lt;div&gt;&lt;span style=&quot;white-space: pre;&quot;&gt;&#x9;&lt;/span&gt;order: Order,&lt;/div&gt;&lt;div&gt;&lt;span style=&quot;white-space: pre;&quot;&gt;&#x9;&lt;/span&gt;status: string&lt;/div&gt;&lt;div&gt;)&lt;/div&gt;" style="text;html=1;strokeColor=none;fillColor=none;align=left;verticalAlign=top;spacingLeft=4;spacingRight=4;whiteSpace=wrap;overflow=hidden;rotatable=0;points=[[0,0.5],[1,0.5]];portConstraint=eastwest;" parent="78961159f06e98e8-43" vertex="1">
          <mxGeometry y="400" width="230" height="70" as="geometry" />
        </mxCell>
        <mxCell id="uNZQMIJPDMaygq_h1qCS-8" value="void cancelOrder(&lt;div&gt;&lt;span style=&quot;white-space: pre;&quot;&gt;&#x9;&lt;/span&gt;order: Order&lt;/div&gt;&lt;div&gt;)&lt;/div&gt;" style="text;html=1;strokeColor=none;fillColor=none;align=left;verticalAlign=top;spacingLeft=4;spacingRight=4;whiteSpace=wrap;overflow=hidden;rotatable=0;points=[[0,0.5],[1,0.5]];portConstraint=eastwest;" parent="78961159f06e98e8-43" vertex="1">
          <mxGeometry y="470" width="230" height="50" as="geometry" />
        </mxCell>
        <mxCell id="uNZQMIJPDMaygq_h1qCS-7" value="[Order] viewOrderHistory(&lt;div&gt;&lt;span style=&quot;white-space: pre;&quot;&gt;&#x9;&lt;/span&gt;customer: Customer&lt;/div&gt;&lt;div&gt;)&amp;nbsp;&lt;/div&gt;" style="text;html=1;strokeColor=none;fillColor=none;align=left;verticalAlign=top;spacingLeft=4;spacingRight=4;whiteSpace=wrap;overflow=hidden;rotatable=0;points=[[0,0.5],[1,0.5]];portConstraint=eastwest;" parent="78961159f06e98e8-43" vertex="1">
          <mxGeometry y="520" width="230" height="50" as="geometry" />
        </mxCell>
        <mxCell id="VjnVj0Spa0lAr0Tu__Oc-30" style="edgeStyle=orthogonalEdgeStyle;rounded=0;orthogonalLoop=1;jettySize=auto;html=1;exitX=0.5;exitY=0;exitDx=0;exitDy=0;entryX=0.25;entryY=1;entryDx=0;entryDy=0;endArrow=block;endFill=0;endSize=16;" parent="1" source="uNZQMIJPDMaygq_h1qCS-94" target="235556782a83e6d0-1" edge="1">
          <mxGeometry relative="1" as="geometry" />
        </mxCell>
        <mxCell id="uNZQMIJPDMaygq_h1qCS-94" value="Contractor" style="swimlane;html=1;fontStyle=1;align=center;verticalAlign=top;childLayout=stackLayout;horizontal=1;startSize=26;horizontalStack=0;resizeParent=1;resizeLast=0;collapsible=1;marginBottom=0;swimlaneFillColor=#ffffff;rounded=0;shadow=0;comic=0;labelBackgroundColor=none;strokeWidth=1;fillColor=none;fontFamily=Verdana;fontSize=12" parent="1" vertex="1">
          <mxGeometry x="-3215" y="310" width="160" height="90" as="geometry" />
        </mxCell>
        <mxCell id="uNZQMIJPDMaygq_h1qCS-95" value="orderHistorty: [Order]" style="text;html=1;strokeColor=none;fillColor=none;align=left;verticalAlign=top;spacingLeft=4;spacingRight=4;whiteSpace=wrap;overflow=hidden;rotatable=0;points=[[0,0.5],[1,0.5]];portConstraint=eastwest;" parent="uNZQMIJPDMaygq_h1qCS-94" vertex="1">
          <mxGeometry y="26" width="160" height="26" as="geometry" />
        </mxCell>
        <mxCell id="uNZQMIJPDMaygq_h1qCS-96" value="" style="line;html=1;strokeWidth=1;fillColor=none;align=left;verticalAlign=middle;spacingTop=-1;spacingLeft=3;spacingRight=3;rotatable=0;labelPosition=right;points=[];portConstraint=eastwest;" parent="uNZQMIJPDMaygq_h1qCS-94" vertex="1">
          <mxGeometry y="52" width="160" height="8" as="geometry" />
        </mxCell>
        <mxCell id="uNZQMIJPDMaygq_h1qCS-97" value="[Order] viewOrderHistory()&amp;nbsp;" style="text;html=1;strokeColor=none;fillColor=none;align=left;verticalAlign=top;spacingLeft=4;spacingRight=4;whiteSpace=wrap;overflow=hidden;rotatable=0;points=[[0,0.5],[1,0.5]];portConstraint=eastwest;" parent="uNZQMIJPDMaygq_h1qCS-94" vertex="1">
          <mxGeometry y="60" width="160" height="30" as="geometry" />
        </mxCell>
        <mxCell id="VjnVj0Spa0lAr0Tu__Oc-19" style="edgeStyle=orthogonalEdgeStyle;rounded=0;orthogonalLoop=1;jettySize=auto;html=1;exitX=0.75;exitY=0;exitDx=0;exitDy=0;entryX=0;entryY=0.5;entryDx=0;entryDy=0;endArrow=block;endFill=1;startArrow=block;startFill=1;" parent="1" source="uNZQMIJPDMaygq_h1qCS-68" target="uNZQMIJPDMaygq_h1qCS-3" edge="1">
          <mxGeometry relative="1" as="geometry" />
        </mxCell>
        <mxCell id="uNZQMIJPDMaygq_h1qCS-68" value="ShoppingCart" style="swimlane;html=1;fontStyle=1;align=center;verticalAlign=top;childLayout=stackLayout;horizontal=1;startSize=26;horizontalStack=0;resizeParent=1;resizeLast=0;collapsible=1;marginBottom=0;swimlaneFillColor=#ffffff;rounded=0;shadow=0;comic=0;labelBackgroundColor=none;strokeWidth=1;fillColor=none;fontFamily=Verdana;fontSize=12" parent="1" vertex="1">
          <mxGeometry x="-2920" y="490" width="150" height="290" as="geometry" />
        </mxCell>
        <mxCell id="uNZQMIJPDMaygq_h1qCS-69" value="cartItems: [OrderItem]" style="text;html=1;strokeColor=none;fillColor=none;align=left;verticalAlign=top;spacingLeft=4;spacingRight=4;whiteSpace=wrap;overflow=hidden;rotatable=0;points=[[0,0.5],[1,0.5]];portConstraint=eastwest;" parent="uNZQMIJPDMaygq_h1qCS-68" vertex="1">
          <mxGeometry y="26" width="150" height="26" as="geometry" />
        </mxCell>
        <mxCell id="uNZQMIJPDMaygq_h1qCS-70" value="totalPrice: float" style="text;html=1;strokeColor=none;fillColor=none;align=left;verticalAlign=top;spacingLeft=4;spacingRight=4;whiteSpace=wrap;overflow=hidden;rotatable=0;points=[[0,0.5],[1,0.5]];portConstraint=eastwest;" parent="uNZQMIJPDMaygq_h1qCS-68" vertex="1">
          <mxGeometry y="52" width="150" height="26" as="geometry" />
        </mxCell>
        <mxCell id="uNZQMIJPDMaygq_h1qCS-72" value="" style="line;html=1;strokeWidth=1;fillColor=none;align=left;verticalAlign=middle;spacingTop=-1;spacingLeft=3;spacingRight=3;rotatable=0;labelPosition=right;points=[];portConstraint=eastwest;" parent="uNZQMIJPDMaygq_h1qCS-68" vertex="1">
          <mxGeometry y="78" width="150" height="8" as="geometry" />
        </mxCell>
        <mxCell id="uNZQMIJPDMaygq_h1qCS-71" value="void addToCart(&lt;div&gt;&lt;span style=&quot;white-space: pre;&quot;&gt;&#x9;&lt;/span&gt;product: Product,&lt;/div&gt;&lt;div&gt;&lt;span style=&quot;white-space: pre;&quot;&gt;&#x9;&lt;/span&gt;&amp;nbsp;quantity: int&lt;/div&gt;&lt;div&gt;)&lt;/div&gt;" style="text;html=1;strokeColor=none;fillColor=none;align=left;verticalAlign=top;spacingLeft=4;spacingRight=4;whiteSpace=wrap;overflow=hidden;rotatable=0;points=[[0,0.5],[1,0.5]];portConstraint=eastwest;" parent="uNZQMIJPDMaygq_h1qCS-68" vertex="1">
          <mxGeometry y="86" width="150" height="74" as="geometry" />
        </mxCell>
        <mxCell id="uNZQMIJPDMaygq_h1qCS-73" value="void removeFromCart(&lt;div&gt;&lt;span style=&quot;white-space: pre;&quot;&gt;&#x9;&lt;/span&gt;product: Product&lt;/div&gt;&lt;div&gt;)&lt;/div&gt;" style="text;html=1;strokeColor=none;fillColor=none;align=left;verticalAlign=top;spacingLeft=4;spacingRight=4;whiteSpace=wrap;overflow=hidden;rotatable=0;points=[[0,0.5],[1,0.5]];portConstraint=eastwest;" parent="uNZQMIJPDMaygq_h1qCS-68" vertex="1">
          <mxGeometry y="160" width="150" height="50" as="geometry" />
        </mxCell>
        <mxCell id="uNZQMIJPDMaygq_h1qCS-81" value="[OrderItem]&amp;nbsp;viewCart()&amp;nbsp;" style="text;html=1;strokeColor=none;fillColor=none;align=left;verticalAlign=top;spacingLeft=4;spacingRight=4;whiteSpace=wrap;overflow=hidden;rotatable=0;points=[[0,0.5],[1,0.5]];portConstraint=eastwest;" parent="uNZQMIJPDMaygq_h1qCS-68" vertex="1">
          <mxGeometry y="210" width="150" height="26" as="geometry" />
        </mxCell>
        <mxCell id="uNZQMIJPDMaygq_h1qCS-80" value="[Order] checkout(&lt;div&gt;paymentMethod: string&lt;/div&gt;&lt;div&gt;)&amp;nbsp;&lt;/div&gt;" style="text;html=1;strokeColor=none;fillColor=none;align=left;verticalAlign=top;spacingLeft=4;spacingRight=4;whiteSpace=wrap;overflow=hidden;rotatable=0;points=[[0,0.5],[1,0.5]];portConstraint=eastwest;" parent="uNZQMIJPDMaygq_h1qCS-68" vertex="1">
          <mxGeometry y="236" width="150" height="44" as="geometry" />
        </mxCell>
        <mxCell id="uNZQMIJPDMaygq_h1qCS-90" value="&lt;p style=&quot;margin:0px;margin-top:4px;text-align:center;&quot;&gt;&lt;i&gt;&amp;lt;&amp;lt;Interface&amp;gt;&amp;gt;&lt;/i&gt;&lt;br&gt;&lt;b&gt;IOrder&lt;/b&gt;&lt;/p&gt;&lt;hr size=&quot;1&quot;&gt;&lt;p style=&quot;margin:0px;margin-left:4px;&quot;&gt;void addProduct(&lt;/p&gt;&lt;blockquote style=&quot;margin: 0 0 0 40px; border: none; padding: 0px;&quot;&gt;&lt;p style=&quot;margin:0px;margin-left:4px;&quot;&gt;product: Product,&lt;/p&gt;&lt;p style=&quot;margin:0px;margin-left:4px;&quot;&gt;quantity: integer&lt;/p&gt;&lt;/blockquote&gt;&lt;p style=&quot;margin:0px;margin-left:4px;&quot;&gt;)&lt;br&gt;void removeProduct(&lt;/p&gt;&lt;p style=&quot;margin:0px;margin-left:4px;&quot;&gt;&lt;span style=&quot;white-space: pre;&quot;&gt;&#x9;&lt;/span&gt;product: Product&lt;/p&gt;&lt;p style=&quot;margin:0px;margin-left:4px;&quot;&gt;)&lt;/p&gt;&lt;p style=&quot;margin:0px;margin-left:4px;&quot;&gt;void cancelOrder()&lt;/p&gt;&lt;p style=&quot;margin:0px;margin-left:4px;&quot;&gt;void viewOrderStatus()&lt;/p&gt;" style="verticalAlign=top;align=left;overflow=fill;fontSize=12;fontFamily=Helvetica;html=1;rounded=0;shadow=0;comic=0;labelBackgroundColor=none;strokeWidth=1" parent="1" vertex="1">
          <mxGeometry x="-2650" y="160" width="150" height="190" as="geometry" />
        </mxCell>
        <mxCell id="VjnVj0Spa0lAr0Tu__Oc-12" style="edgeStyle=orthogonalEdgeStyle;rounded=0;orthogonalLoop=1;jettySize=auto;html=1;exitX=0.5;exitY=0;exitDx=0;exitDy=0;entryX=1;entryY=0.5;entryDx=0;entryDy=0;startArrow=block;startFill=1;endArrow=block;endFill=1;" parent="1" source="uNZQMIJPDMaygq_h1qCS-15" target="uNZQMIJPDMaygq_h1qCS-1" edge="1">
          <mxGeometry relative="1" as="geometry" />
        </mxCell>
        <mxCell id="uNZQMIJPDMaygq_h1qCS-15" value="Inventory" style="swimlane;html=1;fontStyle=1;align=center;verticalAlign=top;childLayout=stackLayout;horizontal=1;startSize=26;horizontalStack=0;resizeParent=1;resizeLast=0;collapsible=1;marginBottom=0;swimlaneFillColor=#ffffff;rounded=0;shadow=0;comic=0;labelBackgroundColor=none;strokeWidth=1;fillColor=none;fontFamily=Verdana;fontSize=12" parent="1" vertex="1">
          <mxGeometry x="-2145" y="-280" width="140" height="190" as="geometry" />
        </mxCell>
        <mxCell id="uNZQMIJPDMaygq_h1qCS-16" value="products: [Product]" style="text;html=1;strokeColor=none;fillColor=none;align=left;verticalAlign=top;spacingLeft=4;spacingRight=4;whiteSpace=wrap;overflow=hidden;rotatable=0;points=[[0,0.5],[1,0.5]];portConstraint=eastwest;" parent="uNZQMIJPDMaygq_h1qCS-15" vertex="1">
          <mxGeometry y="26" width="140" height="26" as="geometry" />
        </mxCell>
        <mxCell id="uNZQMIJPDMaygq_h1qCS-18" value="" style="line;html=1;strokeWidth=1;fillColor=none;align=left;verticalAlign=middle;spacingTop=-1;spacingLeft=3;spacingRight=3;rotatable=0;labelPosition=right;points=[];portConstraint=eastwest;" parent="uNZQMIJPDMaygq_h1qCS-15" vertex="1">
          <mxGeometry y="52" width="140" height="8" as="geometry" />
        </mxCell>
        <mxCell id="uNZQMIJPDMaygq_h1qCS-17" value="void updateStock(&lt;div&gt;&lt;span style=&quot;white-space: pre;&quot;&gt;&#x9;&lt;/span&gt;product: Product,&amp;nbsp;&lt;/div&gt;&lt;div&gt;&lt;span style=&quot;white-space: pre;&quot;&gt;&#x9;&lt;/span&gt;quantity: integer&lt;/div&gt;&lt;div&gt;)&lt;/div&gt;" style="text;html=1;strokeColor=none;fillColor=none;align=left;verticalAlign=top;spacingLeft=4;spacingRight=4;whiteSpace=wrap;overflow=hidden;rotatable=0;points=[[0,0.5],[1,0.5]];portConstraint=eastwest;" parent="uNZQMIJPDMaygq_h1qCS-15" vertex="1">
          <mxGeometry y="60" width="140" height="70" as="geometry" />
        </mxCell>
        <mxCell id="uNZQMIJPDMaygq_h1qCS-19" value="integer checkStock(&lt;div&gt;&lt;span style=&quot;white-space: pre;&quot;&gt;&#x9;&lt;/span&gt;product: Product&lt;/div&gt;&lt;div&gt;)&lt;/div&gt;" style="text;html=1;strokeColor=none;fillColor=none;align=left;verticalAlign=top;spacingLeft=4;spacingRight=4;whiteSpace=wrap;overflow=hidden;rotatable=0;points=[[0,0.5],[1,0.5]];portConstraint=eastwest;" parent="uNZQMIJPDMaygq_h1qCS-15" vertex="1">
          <mxGeometry y="130" width="140" height="60" as="geometry" />
        </mxCell>
        <mxCell id="uNZQMIJPDMaygq_h1qCS-23" value="MarketingManager" style="swimlane;html=1;fontStyle=1;align=center;verticalAlign=top;childLayout=stackLayout;horizontal=1;startSize=26;horizontalStack=0;resizeParent=1;resizeLast=0;collapsible=1;marginBottom=0;swimlaneFillColor=#ffffff;rounded=0;shadow=0;comic=0;labelBackgroundColor=none;strokeWidth=1;fillColor=none;fontFamily=Verdana;fontSize=12" parent="1" vertex="1">
          <mxGeometry x="-2245" y="200" width="220" height="160" as="geometry" />
        </mxCell>
        <mxCell id="uNZQMIJPDMaygq_h1qCS-25" value="" style="line;html=1;strokeWidth=1;fillColor=none;align=left;verticalAlign=middle;spacingTop=-1;spacingLeft=3;spacingRight=3;rotatable=0;labelPosition=right;points=[];portConstraint=eastwest;" parent="uNZQMIJPDMaygq_h1qCS-23" vertex="1">
          <mxGeometry y="26" width="220" height="8" as="geometry" />
        </mxCell>
        <mxCell id="uNZQMIJPDMaygq_h1qCS-24" value="[Order] reviewWeeklyOrderSummary()&amp;nbsp;" style="text;html=1;strokeColor=none;fillColor=none;align=left;verticalAlign=top;spacingLeft=4;spacingRight=4;whiteSpace=wrap;overflow=hidden;rotatable=0;points=[[0,0.5],[1,0.5]];portConstraint=eastwest;" parent="uNZQMIJPDMaygq_h1qCS-23" vertex="1">
          <mxGeometry y="34" width="220" height="26" as="geometry" />
        </mxCell>
        <mxCell id="uNZQMIJPDMaygq_h1qCS-26" value="void createPromotion(&lt;div&gt;&lt;span style=&quot;white-space: pre;&quot;&gt;&#x9;&lt;/span&gt;promotionDetails: string&lt;/div&gt;&lt;div&gt;)&amp;nbsp;&lt;/div&gt;" style="text;html=1;strokeColor=none;fillColor=none;align=left;verticalAlign=top;spacingLeft=4;spacingRight=4;whiteSpace=wrap;overflow=hidden;rotatable=0;points=[[0,0.5],[1,0.5]];portConstraint=eastwest;" parent="uNZQMIJPDMaygq_h1qCS-23" vertex="1">
          <mxGeometry y="60" width="220" height="60" as="geometry" />
        </mxCell>
        <mxCell id="uNZQMIJPDMaygq_h1qCS-27" value="void notifyCustomersWIthCoupons()&amp;nbsp;" style="text;html=1;strokeColor=none;fillColor=none;align=left;verticalAlign=top;spacingLeft=4;spacingRight=4;whiteSpace=wrap;overflow=hidden;rotatable=0;points=[[0,0.5],[1,0.5]];portConstraint=eastwest;" parent="uNZQMIJPDMaygq_h1qCS-23" vertex="1">
          <mxGeometry y="120" width="220" height="26" as="geometry" />
        </mxCell>
        <mxCell id="VjnVj0Spa0lAr0Tu__Oc-24" style="edgeStyle=orthogonalEdgeStyle;rounded=0;orthogonalLoop=1;jettySize=auto;html=1;exitX=0.75;exitY=0;exitDx=0;exitDy=0;entryX=0;entryY=0.5;entryDx=0;entryDy=0;startArrow=block;startFill=1;endArrow=block;endFill=1;" parent="1" source="uNZQMIJPDMaygq_h1qCS-51" target="uNZQMIJPDMaygq_h1qCS-13" edge="1">
          <mxGeometry relative="1" as="geometry" />
        </mxCell>
        <mxCell id="VjnVj0Spa0lAr0Tu__Oc-25" style="edgeStyle=orthogonalEdgeStyle;rounded=0;orthogonalLoop=1;jettySize=auto;html=1;exitX=0.25;exitY=0;exitDx=0;exitDy=0;entryX=0.75;entryY=1;entryDx=0;entryDy=0;startArrow=block;startFill=1;endArrow=block;endFill=1;" parent="1" source="uNZQMIJPDMaygq_h1qCS-51" target="uNZQMIJPDMaygq_h1qCS-68" edge="1">
          <mxGeometry relative="1" as="geometry">
            <mxPoint x="-2820" y="810" as="targetPoint" />
          </mxGeometry>
        </mxCell>
        <mxCell id="uNZQMIJPDMaygq_h1qCS-51" value="OrderItem" style="swimlane;html=1;fontStyle=1;align=center;verticalAlign=top;childLayout=stackLayout;horizontal=1;startSize=26;horizontalStack=0;resizeParent=1;resizeLast=0;collapsible=1;marginBottom=0;swimlaneFillColor=#ffffff;rounded=0;shadow=0;comic=0;labelBackgroundColor=none;strokeWidth=1;fillColor=none;fontFamily=Verdana;fontSize=12" parent="1" vertex="1">
          <mxGeometry x="-2695" y="830" width="160" height="120" as="geometry" />
        </mxCell>
        <mxCell id="uNZQMIJPDMaygq_h1qCS-52" value="product: [Product]" style="text;html=1;strokeColor=none;fillColor=none;align=left;verticalAlign=top;spacingLeft=4;spacingRight=4;whiteSpace=wrap;overflow=hidden;rotatable=0;points=[[0,0.5],[1,0.5]];portConstraint=eastwest;" parent="uNZQMIJPDMaygq_h1qCS-51" vertex="1">
          <mxGeometry y="26" width="160" height="26" as="geometry" />
        </mxCell>
        <mxCell id="uNZQMIJPDMaygq_h1qCS-55" value="quantity: integer" style="text;html=1;strokeColor=none;fillColor=none;align=left;verticalAlign=top;spacingLeft=4;spacingRight=4;whiteSpace=wrap;overflow=hidden;rotatable=0;points=[[0,0.5],[1,0.5]];portConstraint=eastwest;" parent="uNZQMIJPDMaygq_h1qCS-51" vertex="1">
          <mxGeometry y="52" width="160" height="26" as="geometry" />
        </mxCell>
        <mxCell id="uNZQMIJPDMaygq_h1qCS-54" value="totalPrice: float" style="text;html=1;strokeColor=none;fillColor=none;align=left;verticalAlign=top;spacingLeft=4;spacingRight=4;whiteSpace=wrap;overflow=hidden;rotatable=0;points=[[0,0.5],[1,0.5]];portConstraint=eastwest;" parent="uNZQMIJPDMaygq_h1qCS-51" vertex="1">
          <mxGeometry y="78" width="160" height="26" as="geometry" />
        </mxCell>
        <mxCell id="uNZQMIJPDMaygq_h1qCS-53" value="" style="line;html=1;strokeWidth=1;fillColor=none;align=left;verticalAlign=middle;spacingTop=-1;spacingLeft=3;spacingRight=3;rotatable=0;labelPosition=right;points=[];portConstraint=eastwest;" parent="uNZQMIJPDMaygq_h1qCS-51" vertex="1">
          <mxGeometry y="104" width="160" height="8" as="geometry" />
        </mxCell>
        <mxCell id="VjnVj0Spa0lAr0Tu__Oc-18" style="edgeStyle=orthogonalEdgeStyle;rounded=0;orthogonalLoop=1;jettySize=auto;html=1;exitX=0.25;exitY=0;exitDx=0;exitDy=0;entryX=0.5;entryY=1;entryDx=0;entryDy=0;dashed=1;endArrow=block;endFill=0;endSize=16;" parent="1" source="78961159f06e98e8-82" target="uNZQMIJPDMaygq_h1qCS-90" edge="1">
          <mxGeometry relative="1" as="geometry" />
        </mxCell>
        <mxCell id="78961159f06e98e8-82" value="Order" style="swimlane;html=1;fontStyle=1;align=center;verticalAlign=top;childLayout=stackLayout;horizontal=1;startSize=26;horizontalStack=0;resizeParent=1;resizeLast=0;collapsible=1;marginBottom=0;swimlaneFillColor=#ffffff;rounded=0;shadow=0;comic=0;labelBackgroundColor=none;strokeWidth=1;fillColor=none;fontFamily=Verdana;fontSize=12" parent="1" vertex="1">
          <mxGeometry x="-2510" y="440" width="180" height="360" as="geometry" />
        </mxCell>
        <mxCell id="uNZQMIJPDMaygq_h1qCS-92" value="orderID: integer" style="text;html=1;strokeColor=none;fillColor=none;align=left;verticalAlign=top;spacingLeft=4;spacingRight=4;whiteSpace=wrap;overflow=hidden;rotatable=0;points=[[0,0.5],[1,0.5]];portConstraint=eastwest;" parent="78961159f06e98e8-82" vertex="1">
          <mxGeometry y="26" width="180" height="26" as="geometry" />
        </mxCell>
        <mxCell id="78961159f06e98e8-89" value="orderDate: DateTime" style="text;html=1;strokeColor=none;fillColor=none;align=left;verticalAlign=top;spacingLeft=4;spacingRight=4;whiteSpace=wrap;overflow=hidden;rotatable=0;points=[[0,0.5],[1,0.5]];portConstraint=eastwest;" parent="78961159f06e98e8-82" vertex="1">
          <mxGeometry y="52" width="180" height="26" as="geometry" />
        </mxCell>
        <mxCell id="78961159f06e98e8-94" value="orderStatus: string" style="text;html=1;strokeColor=none;fillColor=none;align=left;verticalAlign=top;spacingLeft=4;spacingRight=4;whiteSpace=wrap;overflow=hidden;rotatable=0;points=[[0,0.5],[1,0.5]];portConstraint=eastwest;" parent="78961159f06e98e8-82" vertex="1">
          <mxGeometry y="78" width="180" height="26" as="geometry" />
        </mxCell>
        <mxCell id="b94bc138ca980ef-4" value="orderItems: [OrderItem]" style="text;html=1;strokeColor=none;fillColor=none;align=left;verticalAlign=top;spacingLeft=4;spacingRight=4;whiteSpace=wrap;overflow=hidden;rotatable=0;points=[[0,0.5],[1,0.5]];portConstraint=eastwest;" parent="78961159f06e98e8-82" vertex="1">
          <mxGeometry y="104" width="180" height="26" as="geometry" />
        </mxCell>
        <mxCell id="78961159f06e98e8-90" value="" style="line;html=1;strokeWidth=1;fillColor=none;align=left;verticalAlign=middle;spacingTop=-1;spacingLeft=3;spacingRight=3;rotatable=0;labelPosition=right;points=[];portConstraint=eastwest;" parent="78961159f06e98e8-82" vertex="1">
          <mxGeometry y="130" width="180" height="8" as="geometry" />
        </mxCell>
        <mxCell id="uNZQMIJPDMaygq_h1qCS-9" value="void addProduct(&lt;div&gt;&lt;span style=&quot;white-space: pre;&quot;&gt;&#x9;&lt;/span&gt;product:Product,&lt;/div&gt;&lt;div&gt;&lt;span style=&quot;white-space: pre;&quot;&gt;&#x9;&lt;/span&gt;quantity: integer&lt;/div&gt;&lt;div&gt;)&lt;/div&gt;" style="text;html=1;strokeColor=none;fillColor=none;align=left;verticalAlign=top;spacingLeft=4;spacingRight=4;whiteSpace=wrap;overflow=hidden;rotatable=0;points=[[0,0.5],[1,0.5]];portConstraint=eastwest;" parent="78961159f06e98e8-82" vertex="1">
          <mxGeometry y="138" width="180" height="62" as="geometry" />
        </mxCell>
        <mxCell id="uNZQMIJPDMaygq_h1qCS-11" value="void removeProduct(&lt;div&gt;&lt;span style=&quot;white-space: pre;&quot;&gt;&#x9;&lt;/span&gt;product: Product&lt;/div&gt;&lt;div&gt;)&lt;/div&gt;" style="text;html=1;strokeColor=none;fillColor=none;align=left;verticalAlign=top;spacingLeft=4;spacingRight=4;whiteSpace=wrap;overflow=hidden;rotatable=0;points=[[0,0.5],[1,0.5]];portConstraint=eastwest;" parent="78961159f06e98e8-82" vertex="1">
          <mxGeometry y="200" width="180" height="50" as="geometry" />
        </mxCell>
        <mxCell id="uNZQMIJPDMaygq_h1qCS-10" value="void updateOrderStatus(&lt;div&gt;&lt;span style=&quot;white-space: pre;&quot;&gt;&#x9;&lt;/span&gt;status:string&lt;/div&gt;&lt;div&gt;)&lt;/div&gt;" style="text;html=1;strokeColor=none;fillColor=none;align=left;verticalAlign=top;spacingLeft=4;spacingRight=4;whiteSpace=wrap;overflow=hidden;rotatable=0;points=[[0,0.5],[1,0.5]];portConstraint=eastwest;" parent="78961159f06e98e8-82" vertex="1">
          <mxGeometry y="250" width="180" height="50" as="geometry" />
        </mxCell>
        <mxCell id="uNZQMIJPDMaygq_h1qCS-13" value="void cancelOrder()" style="text;html=1;strokeColor=none;fillColor=none;align=left;verticalAlign=top;spacingLeft=4;spacingRight=4;whiteSpace=wrap;overflow=hidden;rotatable=0;points=[[0,0.5],[1,0.5]];portConstraint=eastwest;" parent="78961159f06e98e8-82" vertex="1">
          <mxGeometry y="300" width="180" height="26" as="geometry" />
        </mxCell>
        <mxCell id="uNZQMIJPDMaygq_h1qCS-12" value="string&amp;nbsp;viewOrderStatus()&amp;nbsp;" style="text;html=1;strokeColor=none;fillColor=none;align=left;verticalAlign=top;spacingLeft=4;spacingRight=4;whiteSpace=wrap;overflow=hidden;rotatable=0;points=[[0,0.5],[1,0.5]];portConstraint=eastwest;" parent="78961159f06e98e8-82" vertex="1">
          <mxGeometry y="326" width="180" height="24" as="geometry" />
        </mxCell>
        <mxCell id="uNZQMIJPDMaygq_h1qCS-40" value="Product" style="swimlane;html=1;fontStyle=1;align=center;verticalAlign=top;childLayout=stackLayout;horizontal=1;startSize=26;horizontalStack=0;resizeParent=1;resizeLast=0;collapsible=1;marginBottom=0;swimlaneFillColor=#ffffff;rounded=0;shadow=0;comic=0;labelBackgroundColor=none;strokeWidth=1;fillColor=none;fontFamily=Verdana;fontSize=12" parent="1" vertex="1">
          <mxGeometry x="-2230" y="700" width="157.5" height="370" as="geometry" />
        </mxCell>
        <mxCell id="uNZQMIJPDMaygq_h1qCS-41" value="productID: integer" style="text;html=1;strokeColor=none;fillColor=none;align=left;verticalAlign=top;spacingLeft=4;spacingRight=4;whiteSpace=wrap;overflow=hidden;rotatable=0;points=[[0,0.5],[1,0.5]];portConstraint=eastwest;" parent="uNZQMIJPDMaygq_h1qCS-40" vertex="1">
          <mxGeometry y="26" width="157.5" height="26" as="geometry" />
        </mxCell>
        <mxCell id="uNZQMIJPDMaygq_h1qCS-42" value="name: string" style="text;html=1;strokeColor=none;fillColor=none;align=left;verticalAlign=top;spacingLeft=4;spacingRight=4;whiteSpace=wrap;overflow=hidden;rotatable=0;points=[[0,0.5],[1,0.5]];portConstraint=eastwest;" parent="uNZQMIJPDMaygq_h1qCS-40" vertex="1">
          <mxGeometry y="52" width="157.5" height="26" as="geometry" />
        </mxCell>
        <mxCell id="uNZQMIJPDMaygq_h1qCS-43" value="brand: string" style="text;html=1;strokeColor=none;fillColor=none;align=left;verticalAlign=top;spacingLeft=4;spacingRight=4;whiteSpace=wrap;overflow=hidden;rotatable=0;points=[[0,0.5],[1,0.5]];portConstraint=eastwest;" parent="uNZQMIJPDMaygq_h1qCS-40" vertex="1">
          <mxGeometry y="78" width="157.5" height="26" as="geometry" />
        </mxCell>
        <mxCell id="uNZQMIJPDMaygq_h1qCS-44" value="price: float" style="text;html=1;strokeColor=none;fillColor=none;align=left;verticalAlign=top;spacingLeft=4;spacingRight=4;whiteSpace=wrap;overflow=hidden;rotatable=0;points=[[0,0.5],[1,0.5]];portConstraint=eastwest;" parent="uNZQMIJPDMaygq_h1qCS-40" vertex="1">
          <mxGeometry y="104" width="157.5" height="26" as="geometry" />
        </mxCell>
        <mxCell id="uNZQMIJPDMaygq_h1qCS-46" value="description: string" style="text;html=1;strokeColor=none;fillColor=none;align=left;verticalAlign=top;spacingLeft=4;spacingRight=4;whiteSpace=wrap;overflow=hidden;rotatable=0;points=[[0,0.5],[1,0.5]];portConstraint=eastwest;" parent="uNZQMIJPDMaygq_h1qCS-40" vertex="1">
          <mxGeometry y="130" width="157.5" height="26" as="geometry" />
        </mxCell>
        <mxCell id="uNZQMIJPDMaygq_h1qCS-47" value="thumbnil: string&amp;nbsp;" style="text;html=1;strokeColor=none;fillColor=none;align=left;verticalAlign=top;spacingLeft=4;spacingRight=4;whiteSpace=wrap;overflow=hidden;rotatable=0;points=[[0,0.5],[1,0.5]];portConstraint=eastwest;" parent="uNZQMIJPDMaygq_h1qCS-40" vertex="1">
          <mxGeometry y="156" width="157.5" height="26" as="geometry" />
        </mxCell>
        <mxCell id="uNZQMIJPDMaygq_h1qCS-48" value="promotion: boolean" style="text;html=1;strokeColor=none;fillColor=none;align=left;verticalAlign=top;spacingLeft=4;spacingRight=4;whiteSpace=wrap;overflow=hidden;rotatable=0;points=[[0,0.5],[1,0.5]];portConstraint=eastwest;" parent="uNZQMIJPDMaygq_h1qCS-40" vertex="1">
          <mxGeometry y="182" width="157.5" height="26" as="geometry" />
        </mxCell>
        <mxCell id="uNZQMIJPDMaygq_h1qCS-49" value="stockQuantity: integer" style="text;html=1;strokeColor=none;fillColor=none;align=left;verticalAlign=top;spacingLeft=4;spacingRight=4;whiteSpace=wrap;overflow=hidden;rotatable=0;points=[[0,0.5],[1,0.5]];portConstraint=eastwest;" parent="uNZQMIJPDMaygq_h1qCS-40" vertex="1">
          <mxGeometry y="208" width="157.5" height="26" as="geometry" />
        </mxCell>
        <mxCell id="uNZQMIJPDMaygq_h1qCS-45" value="" style="line;html=1;strokeWidth=1;fillColor=none;align=left;verticalAlign=middle;spacingTop=-1;spacingLeft=3;spacingRight=3;rotatable=0;labelPosition=right;points=[];portConstraint=eastwest;" parent="uNZQMIJPDMaygq_h1qCS-40" vertex="1">
          <mxGeometry y="234" width="157.5" height="8" as="geometry" />
        </mxCell>
        <mxCell id="uNZQMIJPDMaygq_h1qCS-50" value="[Product]&amp;nbsp;searchProduct(&lt;div&gt;&lt;span style=&quot;white-space: pre;&quot;&gt;&#x9;&lt;/span&gt;name: string,&amp;nbsp;&lt;div&gt;&lt;span style=&quot;white-space: pre;&quot;&gt;&#x9;&lt;/span&gt;brand: string&lt;div&gt;)&amp;nbsp;&lt;/div&gt;&lt;/div&gt;&lt;/div&gt;" style="text;html=1;strokeColor=none;fillColor=none;align=left;verticalAlign=top;spacingLeft=4;spacingRight=4;whiteSpace=wrap;overflow=hidden;rotatable=0;points=[[0,0.5],[1,0.5]];portConstraint=eastwest;" parent="uNZQMIJPDMaygq_h1qCS-40" vertex="1">
          <mxGeometry y="242" width="157.5" height="68" as="geometry" />
        </mxCell>
        <mxCell id="uNZQMIJPDMaygq_h1qCS-60" value="[Product] filterProducts(&lt;div&gt;&lt;span style=&quot;white-space: pre;&quot;&gt;&#x9;&lt;/span&gt;criteria, string&lt;/div&gt;&lt;div&gt;)&amp;nbsp;&lt;/div&gt;" style="text;html=1;strokeColor=none;fillColor=none;align=left;verticalAlign=top;spacingLeft=4;spacingRight=4;whiteSpace=wrap;overflow=hidden;rotatable=0;points=[[0,0.5],[1,0.5]];portConstraint=eastwest;" parent="uNZQMIJPDMaygq_h1qCS-40" vertex="1">
          <mxGeometry y="310" width="157.5" height="60" as="geometry" />
        </mxCell>
        <mxCell id="VjnVj0Spa0lAr0Tu__Oc-9" style="edgeStyle=orthogonalEdgeStyle;rounded=0;orthogonalLoop=1;jettySize=auto;html=1;exitX=0.75;exitY=0;exitDx=0;exitDy=0;entryX=0;entryY=0.5;entryDx=0;entryDy=0;endArrow=block;endFill=1;startArrow=block;startFill=1;" parent="1" source="235556782a83e6d0-1" target="uNZQMIJPDMaygq_h1qCS-6" edge="1">
          <mxGeometry relative="1" as="geometry">
            <mxPoint x="-2570" y="-133" as="targetPoint" />
          </mxGeometry>
        </mxCell>
        <mxCell id="VjnVj0Spa0lAr0Tu__Oc-16" style="edgeStyle=orthogonalEdgeStyle;rounded=0;orthogonalLoop=1;jettySize=auto;html=1;exitX=0.25;exitY=1;exitDx=0;exitDy=0;entryX=0.854;entryY=-0.003;entryDx=0;entryDy=0;entryPerimeter=0;endArrow=block;endFill=1;startArrow=block;startFill=1;" parent="1" source="uNZQMIJPDMaygq_h1qCS-23" target="78961159f06e98e8-82" edge="1">
          <mxGeometry relative="1" as="geometry" />
        </mxCell>
        <mxCell id="VjnVj0Spa0lAr0Tu__Oc-22" style="edgeStyle=orthogonalEdgeStyle;rounded=0;orthogonalLoop=1;jettySize=auto;html=1;exitX=1;exitY=0.5;exitDx=0;exitDy=0;entryX=0.5;entryY=0;entryDx=0;entryDy=0;startArrow=block;startFill=1;endArrow=block;endFill=1;" parent="1" source="uNZQMIJPDMaygq_h1qCS-7" target="uNZQMIJPDMaygq_h1qCS-40" edge="1">
          <mxGeometry relative="1" as="geometry">
            <Array as="points">
              <mxPoint x="-1970" y="55" />
              <mxPoint x="-1970" y="590" />
              <mxPoint x="-2151" y="590" />
            </Array>
          </mxGeometry>
        </mxCell>
        <mxCell id="VjnVj0Spa0lAr0Tu__Oc-23" style="edgeStyle=orthogonalEdgeStyle;rounded=0;orthogonalLoop=1;jettySize=auto;html=1;exitX=0;exitY=0.5;exitDx=0;exitDy=0;entryX=1;entryY=0.5;entryDx=0;entryDy=0;startArrow=block;startFill=1;endArrow=block;endFill=1;" parent="1" source="78961159f06e98e8-94" target="uNZQMIJPDMaygq_h1qCS-102" edge="1">
          <mxGeometry relative="1" as="geometry" />
        </mxCell>
        <mxCell id="VjnVj0Spa0lAr0Tu__Oc-27" style="edgeStyle=orthogonalEdgeStyle;rounded=0;orthogonalLoop=1;jettySize=auto;html=1;exitX=1;exitY=0.5;exitDx=0;exitDy=0;endArrow=block;endFill=1;startArrow=block;startFill=1;" parent="1" source="uNZQMIJPDMaygq_h1qCS-101" target="uNZQMIJPDMaygq_h1qCS-68" edge="1">
          <mxGeometry relative="1" as="geometry" />
        </mxCell>
        <mxCell id="VjnVj0Spa0lAr0Tu__Oc-28" style="edgeStyle=orthogonalEdgeStyle;rounded=0;orthogonalLoop=1;jettySize=auto;html=1;exitX=0;exitY=0.5;exitDx=0;exitDy=0;entryX=0.75;entryY=1;entryDx=0;entryDy=0;" parent="1" source="uNZQMIJPDMaygq_h1qCS-52" target="235556782a83e6d0-1" edge="1">
          <mxGeometry relative="1" as="geometry" />
        </mxCell>
        <mxCell id="VjnVj0Spa0lAr0Tu__Oc-31" style="edgeStyle=orthogonalEdgeStyle;rounded=0;orthogonalLoop=1;jettySize=auto;html=1;exitX=1;exitY=0.5;exitDx=0;exitDy=0;entryX=0;entryY=0.5;entryDx=0;entryDy=0;endArrow=block;endFill=1;startArrow=block;startFill=1;" parent="1" source="uNZQMIJPDMaygq_h1qCS-52" target="uNZQMIJPDMaygq_h1qCS-47" edge="1">
          <mxGeometry relative="1" as="geometry" />
        </mxCell>
        <mxCell id="sVNW4QWwSeIPQTwvh-nU-1" value="&lt;p style=&quot;&quot; class=&quot;MsoListParagraph&quot;&gt;&lt;span style=&quot;text-align: start;&quot;&gt;This class oversees online orders, integrating customers, products, orders, carts, inventory, and the marketing manager.&lt;/span&gt;&lt;br&gt;&lt;/p&gt;" style="shape=note;whiteSpace=wrap;html=1;backgroundOutline=1;darkOpacity=0.05;fillColor=#994C00;fontColor=#ffffff;strokeColor=#6D1F00;" parent="1" vertex="1">
          <mxGeometry x="-2200" y="-500" width="150" height="130" as="geometry" />
        </mxCell>
        <mxCell id="sVNW4QWwSeIPQTwvh-nU-3" value="" style="endArrow=none;html=1;rounded=0;entryX=0;entryY=0.5;entryDx=0;entryDy=0;entryPerimeter=0;endFill=0;startArrow=block;startFill=1;" parent="1" target="sVNW4QWwSeIPQTwvh-nU-1" edge="1">
          <mxGeometry width="50" height="50" relative="1" as="geometry">
            <mxPoint x="-2300" y="-435" as="sourcePoint" />
            <mxPoint x="-2260" y="-490" as="targetPoint" />
          </mxGeometry>
        </mxCell>
        <mxCell id="sVNW4QWwSeIPQTwvh-nU-5" value="&lt;p style=&quot;&quot; class=&quot;MsoListParagraph&quot;&gt;&lt;span style=&quot;font-size:11.0pt;line-height:107%;&lt;br/&gt;font-family:&amp;quot;Calibri&amp;quot;,sans-serif;mso-ascii-theme-font:minor-latin;mso-fareast-font-family:&lt;br/&gt;Calibri;mso-fareast-theme-font:minor-latin;mso-hansi-theme-font:minor-latin;&lt;br/&gt;mso-bidi-font-family:&amp;quot;Times New Roman&amp;quot;;mso-bidi-theme-font:minor-bidi;&lt;br/&gt;mso-ansi-language:EN-US;mso-fareast-language:EN-US;mso-bidi-language:AR-SA&quot;&gt;This&lt;br/&gt;class represents the customers who interact with the online ordering system.&lt;/span&gt;&lt;br&gt;&lt;/p&gt;" style="shape=note;whiteSpace=wrap;html=1;backgroundOutline=1;darkOpacity=0.05;fillColor=#994C00;fontColor=#ffffff;strokeColor=#6D1F00;" parent="1" vertex="1">
          <mxGeometry x="-3472" y="-50" width="150" height="130" as="geometry" />
        </mxCell>
        <mxCell id="sVNW4QWwSeIPQTwvh-nU-6" value="" style="endArrow=none;html=1;rounded=0;entryX=0;entryY=0;entryDx=150;entryDy=80;entryPerimeter=0;endFill=0;startArrow=block;startFill=1;" parent="1" target="sVNW4QWwSeIPQTwvh-nU-5" edge="1">
          <mxGeometry width="50" height="50" relative="1" as="geometry">
            <mxPoint x="-3222" y="30" as="sourcePoint" />
            <mxPoint x="-3322" y="30" as="targetPoint" />
          </mxGeometry>
        </mxCell>
        <mxCell id="sVNW4QWwSeIPQTwvh-nU-7" value="&lt;p style=&quot;&quot; class=&quot;MsoListParagraph&quot;&gt;This class represents an&lt;br&gt;order placed by a customer.&lt;/p&gt;" style="shape=note;whiteSpace=wrap;html=1;backgroundOutline=1;darkOpacity=0.05;fillColor=#994C00;fontColor=#ffffff;strokeColor=#6D1F00;align=center;" parent="1" vertex="1">
          <mxGeometry x="-2226" y="428" width="110" height="125" as="geometry" />
        </mxCell>
        <mxCell id="sVNW4QWwSeIPQTwvh-nU-8" value="" style="endArrow=none;html=1;rounded=0;entryX=0;entryY=0.5;entryDx=0;entryDy=0;entryPerimeter=0;endFill=0;startArrow=block;startFill=1;" parent="1" target="sVNW4QWwSeIPQTwvh-nU-7" edge="1">
          <mxGeometry width="50" height="50" relative="1" as="geometry">
            <mxPoint x="-2326" y="490" as="sourcePoint" />
            <mxPoint x="-2286" y="435" as="targetPoint" />
          </mxGeometry>
        </mxCell>
        <mxCell id="sVNW4QWwSeIPQTwvh-nU-9" value="&lt;p style=&quot;&quot; class=&quot;MsoListParagraph&quot;&gt;This class represents a&lt;br&gt;product available for purchase.&lt;u&gt;&lt;/u&gt;&lt;/p&gt;" style="shape=note;whiteSpace=wrap;html=1;backgroundOutline=1;darkOpacity=0.05;fillColor=#994C00;fontColor=#ffffff;strokeColor=#6D1F00;" parent="1" vertex="1">
          <mxGeometry x="-1968" y="815" width="130" height="100" as="geometry" />
        </mxCell>
        <mxCell id="sVNW4QWwSeIPQTwvh-nU-10" value="" style="endArrow=none;html=1;rounded=0;entryX=0;entryY=0.5;entryDx=0;entryDy=0;entryPerimeter=0;endFill=0;startArrow=block;startFill=1;" parent="1" target="sVNW4QWwSeIPQTwvh-nU-9" edge="1">
          <mxGeometry width="50" height="50" relative="1" as="geometry">
            <mxPoint x="-2068" y="865" as="sourcePoint" />
            <mxPoint x="-2028" y="810" as="targetPoint" />
          </mxGeometry>
        </mxCell>
        <mxCell id="EvVR8xtDCyzQS4zcd8OK-5" value="&lt;font style=&quot;font-size: 30px;&quot;&gt;*&lt;/font&gt;" style="text;html=1;align=center;verticalAlign=middle;whiteSpace=wrap;rounded=0;" vertex="1" parent="1">
          <mxGeometry x="-2970" y="-100" width="30" as="geometry" />
        </mxCell>
        <mxCell id="EvVR8xtDCyzQS4zcd8OK-6" value="&lt;font style=&quot;font-size: 25px;&quot;&gt;1&lt;/font&gt;" style="text;html=1;align=center;verticalAlign=middle;whiteSpace=wrap;rounded=0;" vertex="1" parent="1">
          <mxGeometry x="-2580" y="-210" width="30" height="10" as="geometry" />
        </mxCell>
        <mxCell id="EvVR8xtDCyzQS4zcd8OK-9" value="&lt;font style=&quot;font-size: 25px;&quot;&gt;1&lt;/font&gt;" style="text;html=1;align=center;verticalAlign=middle;whiteSpace=wrap;rounded=0;" vertex="1" parent="1">
          <mxGeometry x="-2072.5" y="-300" width="30" height="10" as="geometry" />
        </mxCell>
        <mxCell id="EvVR8xtDCyzQS4zcd8OK-10" value="&lt;font style=&quot;font-size: 25px;&quot;&gt;1&lt;/font&gt;" style="text;html=1;align=center;verticalAlign=middle;whiteSpace=wrap;rounded=0;" vertex="1" parent="1">
          <mxGeometry x="-2290" y="-340" width="30" height="10" as="geometry" />
        </mxCell>
        <mxCell id="EvVR8xtDCyzQS4zcd8OK-11" value="&lt;font style=&quot;font-size: 25px;&quot;&gt;1&lt;/font&gt;" style="text;html=1;align=center;verticalAlign=middle;whiteSpace=wrap;rounded=0;" vertex="1" parent="1">
          <mxGeometry x="-2290" y="40" width="30" height="10" as="geometry" />
        </mxCell>
        <mxCell id="EvVR8xtDCyzQS4zcd8OK-12" value="&lt;font style=&quot;font-size: 25px;&quot;&gt;1&lt;/font&gt;" style="text;html=1;align=center;verticalAlign=middle;whiteSpace=wrap;rounded=0;" vertex="1" parent="1">
          <mxGeometry x="-2140" y="180" width="30" height="10" as="geometry" />
        </mxCell>
        <mxCell id="EvVR8xtDCyzQS4zcd8OK-13" value="&lt;font style=&quot;font-size: 25px;&quot;&gt;1&lt;/font&gt;" style="text;html=1;align=center;verticalAlign=middle;whiteSpace=wrap;rounded=0;" vertex="1" parent="1">
          <mxGeometry x="-2360" y="110" width="30" height="10" as="geometry" />
        </mxCell>
        <mxCell id="EvVR8xtDCyzQS4zcd8OK-15" value="&lt;font style=&quot;font-size: 25px;&quot;&gt;1&lt;/font&gt;" style="text;html=1;align=center;verticalAlign=middle;whiteSpace=wrap;rounded=0;" vertex="1" parent="1">
          <mxGeometry x="-2580" y="-73" width="30" height="10" as="geometry" />
        </mxCell>
        <mxCell id="EvVR8xtDCyzQS4zcd8OK-16" value="&lt;font style=&quot;font-size: 25px;&quot;&gt;1&lt;/font&gt;" style="text;html=1;align=center;verticalAlign=middle;whiteSpace=wrap;rounded=0;" vertex="1" parent="1">
          <mxGeometry x="-2450" y="110" width="30" height="10" as="geometry" />
        </mxCell>
        <mxCell id="EvVR8xtDCyzQS4zcd8OK-17" value="&lt;font style=&quot;font-size: 25px;&quot;&gt;1&lt;/font&gt;" style="text;html=1;align=center;verticalAlign=middle;whiteSpace=wrap;rounded=0;" vertex="1" parent="1">
          <mxGeometry x="-2560" y="510" width="30" height="10" as="geometry" />
        </mxCell>
        <mxCell id="EvVR8xtDCyzQS4zcd8OK-18" value="&lt;font style=&quot;font-size: 25px;&quot;&gt;1&lt;/font&gt;" style="text;html=1;align=center;verticalAlign=middle;whiteSpace=wrap;rounded=0;" vertex="1" parent="1">
          <mxGeometry x="-2186" y="370" width="30" height="10" as="geometry" />
        </mxCell>
        <mxCell id="EvVR8xtDCyzQS4zcd8OK-19" value="&lt;font style=&quot;font-size: 30px;&quot;&gt;*&lt;/font&gt;" style="text;html=1;align=center;verticalAlign=middle;whiteSpace=wrap;rounded=0;" vertex="1" parent="1">
          <mxGeometry x="-2450" y="420" width="30" as="geometry" />
        </mxCell>
        <mxCell id="EvVR8xtDCyzQS4zcd8OK-21" value="&lt;font style=&quot;font-size: 30px;&quot;&gt;*&lt;/font&gt;" style="text;html=1;align=center;verticalAlign=middle;whiteSpace=wrap;rounded=0;" vertex="1" parent="1">
          <mxGeometry x="-2358" y="421" width="30" as="geometry" />
        </mxCell>
        <mxCell id="EvVR8xtDCyzQS4zcd8OK-22" value="&lt;font style=&quot;font-size: 25px;&quot;&gt;1&lt;/font&gt;" style="text;html=1;align=center;verticalAlign=middle;whiteSpace=wrap;rounded=0;" vertex="1" parent="1">
          <mxGeometry x="-2870" y="170" width="30" height="10" as="geometry" />
        </mxCell>
        <mxCell id="EvVR8xtDCyzQS4zcd8OK-23" value="&lt;font style=&quot;font-size: 25px;&quot;&gt;1&lt;/font&gt;" style="text;html=1;align=center;verticalAlign=middle;whiteSpace=wrap;rounded=0;" vertex="1" parent="1">
          <mxGeometry x="-2877" y="233" width="30" height="10" as="geometry" />
        </mxCell>
        <mxCell id="EvVR8xtDCyzQS4zcd8OK-24" value="&lt;font style=&quot;font-size: 25px;&quot;&gt;1&lt;/font&gt;" style="text;html=1;align=center;verticalAlign=middle;whiteSpace=wrap;rounded=0;" vertex="1" parent="1">
          <mxGeometry x="-2990" y="260" width="30" height="10" as="geometry" />
        </mxCell>
        <mxCell id="EvVR8xtDCyzQS4zcd8OK-25" value="&lt;font style=&quot;font-size: 25px;&quot;&gt;1&lt;/font&gt;" style="text;html=1;align=center;verticalAlign=middle;whiteSpace=wrap;rounded=0;" vertex="1" parent="1">
          <mxGeometry x="-2870" y="460" width="30" height="10" as="geometry" />
        </mxCell>
        <mxCell id="EvVR8xtDCyzQS4zcd8OK-26" value="&lt;font style=&quot;font-size: 30px;&quot;&gt;*&lt;/font&gt;" style="text;html=1;align=center;verticalAlign=middle;whiteSpace=wrap;rounded=0;" vertex="1" parent="1">
          <mxGeometry x="-2810" y="470" width="30" as="geometry" />
        </mxCell>
        <mxCell id="EvVR8xtDCyzQS4zcd8OK-27" value="&lt;font style=&quot;font-size: 25px;&quot;&gt;1&lt;/font&gt;" style="text;html=1;align=center;verticalAlign=middle;whiteSpace=wrap;rounded=0;" vertex="1" parent="1">
          <mxGeometry x="-2802" y="788" width="30" height="10" as="geometry" />
        </mxCell>
        <mxCell id="EvVR8xtDCyzQS4zcd8OK-28" value="&lt;font style=&quot;font-size: 30px;&quot;&gt;*&lt;/font&gt;" style="text;html=1;align=center;verticalAlign=middle;whiteSpace=wrap;rounded=0;" vertex="1" parent="1">
          <mxGeometry x="-2600" y="820" width="30" as="geometry" />
        </mxCell>
        <mxCell id="EvVR8xtDCyzQS4zcd8OK-29" value="&lt;font style=&quot;font-size: 30px;&quot;&gt;*&lt;/font&gt;" style="text;html=1;align=center;verticalAlign=middle;whiteSpace=wrap;rounded=0;" vertex="1" parent="1">
          <mxGeometry x="-2685" y="824" width="30" as="geometry" />
        </mxCell>
        <mxCell id="EvVR8xtDCyzQS4zcd8OK-30" value="&lt;font style=&quot;font-size: 30px;&quot;&gt;*&lt;/font&gt;" style="text;html=1;align=center;verticalAlign=middle;whiteSpace=wrap;rounded=0;" vertex="1" parent="1">
          <mxGeometry x="-2727" y="863" width="30" as="geometry" />
        </mxCell>
        <mxCell id="EvVR8xtDCyzQS4zcd8OK-31" value="&lt;font style=&quot;font-size: 25px;&quot;&gt;1&lt;/font&gt;" style="text;html=1;align=center;verticalAlign=middle;whiteSpace=wrap;rounded=0;" vertex="1" parent="1">
          <mxGeometry x="-2546" y="737" width="30" height="10" as="geometry" />
        </mxCell>
        <mxCell id="EvVR8xtDCyzQS4zcd8OK-32" value="&lt;font style=&quot;font-size: 30px;&quot;&gt;*&lt;/font&gt;" style="text;html=1;align=center;verticalAlign=middle;whiteSpace=wrap;rounded=0;" vertex="1" parent="1">
          <mxGeometry x="-2530" y="860" width="30" as="geometry" />
        </mxCell>
        <mxCell id="EvVR8xtDCyzQS4zcd8OK-33" value="&lt;font style=&quot;font-size: 25px;&quot;&gt;1&lt;/font&gt;" style="text;html=1;align=center;verticalAlign=middle;whiteSpace=wrap;rounded=0;" vertex="1" parent="1">
          <mxGeometry x="-2266" y="849" width="30" height="10" as="geometry" />
        </mxCell>
        <mxCell id="EvVR8xtDCyzQS4zcd8OK-34" value="&lt;font style=&quot;font-size: 30px;&quot;&gt;*&lt;/font&gt;" style="text;html=1;align=center;verticalAlign=middle;whiteSpace=wrap;rounded=0;" vertex="1" parent="1">
          <mxGeometry x="-2180" y="690" width="30" as="geometry" />
        </mxCell>
      </root>
    </mxGraphModel>
  </diagram>
</mxfile>
